<mxfile host="app.diagrams.net" agent="Mozilla/5.0 (X11; Linux x86_64; rv:137.0) Gecko/20100101 Firefox/137.0" version="26.2.14">
  <diagram name="Page-1" id="HDscfOVriLkNcsivDDFp">
    <mxGraphModel dx="1188" dy="621" grid="1" gridSize="10" guides="1" tooltips="1" connect="1" arrows="1" fold="1" page="1" pageScale="1" pageWidth="850" pageHeight="1100" math="0" shadow="0">
      <root>
        <mxCell id="0" />
        <mxCell id="1" parent="0" />
        <mxCell id="2fZesRG1-jXSJ-_jZCT1-1" value="Gericht" style="whiteSpace=wrap;html=1;align=center;" vertex="1" parent="1">
          <mxGeometry x="200" y="230" width="100" height="40" as="geometry" />
        </mxCell>
        <mxCell id="2fZesRG1-jXSJ-_jZCT1-3" value="&lt;div&gt;ID&lt;/div&gt;" style="ellipse;whiteSpace=wrap;html=1;align=center;fontStyle=4;" vertex="1" parent="1">
          <mxGeometry x="60" y="140" width="100" height="40" as="geometry" />
        </mxCell>
        <mxCell id="2fZesRG1-jXSJ-_jZCT1-4" value="Name" style="ellipse;whiteSpace=wrap;html=1;align=center;" vertex="1" parent="1">
          <mxGeometry x="60" y="190" width="100" height="40" as="geometry" />
        </mxCell>
        <mxCell id="2fZesRG1-jXSJ-_jZCT1-5" value="" style="endArrow=none;html=1;rounded=0;entryX=1;entryY=0.5;entryDx=0;entryDy=0;exitX=0;exitY=0.5;exitDx=0;exitDy=0;" edge="1" parent="1" source="2fZesRG1-jXSJ-_jZCT1-1" target="2fZesRG1-jXSJ-_jZCT1-3">
          <mxGeometry width="50" height="50" relative="1" as="geometry">
            <mxPoint x="400" y="390" as="sourcePoint" />
            <mxPoint x="450" y="340" as="targetPoint" />
          </mxGeometry>
        </mxCell>
        <mxCell id="2fZesRG1-jXSJ-_jZCT1-6" value="" style="endArrow=none;html=1;rounded=0;exitX=1;exitY=0.5;exitDx=0;exitDy=0;entryX=0;entryY=0.5;entryDx=0;entryDy=0;" edge="1" parent="1" source="2fZesRG1-jXSJ-_jZCT1-4" target="2fZesRG1-jXSJ-_jZCT1-1">
          <mxGeometry width="50" height="50" relative="1" as="geometry">
            <mxPoint x="90" y="310" as="sourcePoint" />
            <mxPoint x="200" y="180" as="targetPoint" />
          </mxGeometry>
        </mxCell>
        <mxCell id="2fZesRG1-jXSJ-_jZCT1-7" value="Speiseplan" style="whiteSpace=wrap;html=1;align=center;" vertex="1" parent="1">
          <mxGeometry x="530" y="220" width="100" height="40" as="geometry" />
        </mxCell>
        <mxCell id="2fZesRG1-jXSJ-_jZCT1-10" value="Vegetarisch" style="ellipse;whiteSpace=wrap;html=1;align=center;" vertex="1" parent="1">
          <mxGeometry x="60" y="240" width="100" height="40" as="geometry" />
        </mxCell>
        <mxCell id="2fZesRG1-jXSJ-_jZCT1-11" value="Vegan" style="ellipse;whiteSpace=wrap;html=1;align=center;" vertex="1" parent="1">
          <mxGeometry x="60" y="290" width="100" height="40" as="geometry" />
        </mxCell>
        <mxCell id="2fZesRG1-jXSJ-_jZCT1-12" style="edgeStyle=orthogonalEdgeStyle;rounded=0;orthogonalLoop=1;jettySize=auto;html=1;exitX=0.5;exitY=1;exitDx=0;exitDy=0;" edge="1" parent="1" source="2fZesRG1-jXSJ-_jZCT1-11" target="2fZesRG1-jXSJ-_jZCT1-11">
          <mxGeometry relative="1" as="geometry" />
        </mxCell>
        <mxCell id="2fZesRG1-jXSJ-_jZCT1-13" value="Glutenfrei" style="ellipse;whiteSpace=wrap;html=1;align=center;" vertex="1" parent="1">
          <mxGeometry x="60" y="340" width="100" height="40" as="geometry" />
        </mxCell>
        <mxCell id="2fZesRG1-jXSJ-_jZCT1-14" value="" style="endArrow=none;html=1;rounded=0;exitX=1;exitY=0.5;exitDx=0;exitDy=0;entryX=0;entryY=0.5;entryDx=0;entryDy=0;" edge="1" parent="1" source="2fZesRG1-jXSJ-_jZCT1-10" target="2fZesRG1-jXSJ-_jZCT1-1">
          <mxGeometry width="50" height="50" relative="1" as="geometry">
            <mxPoint x="170" y="220" as="sourcePoint" />
            <mxPoint x="210" y="190" as="targetPoint" />
          </mxGeometry>
        </mxCell>
        <mxCell id="2fZesRG1-jXSJ-_jZCT1-15" value="" style="endArrow=none;html=1;rounded=0;exitX=1;exitY=0.5;exitDx=0;exitDy=0;entryX=0;entryY=0.5;entryDx=0;entryDy=0;" edge="1" parent="1" source="2fZesRG1-jXSJ-_jZCT1-11" target="2fZesRG1-jXSJ-_jZCT1-1">
          <mxGeometry width="50" height="50" relative="1" as="geometry">
            <mxPoint x="180" y="230" as="sourcePoint" />
            <mxPoint x="200" y="180" as="targetPoint" />
          </mxGeometry>
        </mxCell>
        <mxCell id="2fZesRG1-jXSJ-_jZCT1-16" value="" style="endArrow=none;html=1;rounded=0;exitX=1;exitY=0.5;exitDx=0;exitDy=0;entryX=0;entryY=0.5;entryDx=0;entryDy=0;" edge="1" parent="1" source="2fZesRG1-jXSJ-_jZCT1-13" target="2fZesRG1-jXSJ-_jZCT1-1">
          <mxGeometry width="50" height="50" relative="1" as="geometry">
            <mxPoint x="190" y="240" as="sourcePoint" />
            <mxPoint x="230" y="210" as="targetPoint" />
          </mxGeometry>
        </mxCell>
        <mxCell id="2fZesRG1-jXSJ-_jZCT1-20" value="" style="endArrow=none;html=1;rounded=0;entryX=1;entryY=0.5;entryDx=0;entryDy=0;exitX=0;exitY=0.5;exitDx=0;exitDy=0;" edge="1" parent="1" source="2fZesRG1-jXSJ-_jZCT1-64" target="2fZesRG1-jXSJ-_jZCT1-1">
          <mxGeometry width="50" height="50" relative="1" as="geometry">
            <mxPoint x="360" y="239.9999999999999" as="sourcePoint" />
            <mxPoint x="330" y="430" as="targetPoint" />
          </mxGeometry>
        </mxCell>
        <mxCell id="2fZesRG1-jXSJ-_jZCT1-69" value="1" style="edgeLabel;html=1;align=center;verticalAlign=middle;resizable=0;points=[];" vertex="1" connectable="0" parent="2fZesRG1-jXSJ-_jZCT1-20">
          <mxGeometry x="0.2518" relative="1" as="geometry">
            <mxPoint x="-13" y="4" as="offset" />
          </mxGeometry>
        </mxCell>
        <mxCell id="2fZesRG1-jXSJ-_jZCT1-21" value="" style="endArrow=none;html=1;rounded=0;entryX=1;entryY=0.5;entryDx=0;entryDy=0;exitX=0;exitY=0.5;exitDx=0;exitDy=0;" edge="1" parent="1" source="2fZesRG1-jXSJ-_jZCT1-7" target="2fZesRG1-jXSJ-_jZCT1-64">
          <mxGeometry width="50" height="50" relative="1" as="geometry">
            <mxPoint x="390" y="410" as="sourcePoint" />
            <mxPoint x="480" y="239.9999999999999" as="targetPoint" />
          </mxGeometry>
        </mxCell>
        <mxCell id="2fZesRG1-jXSJ-_jZCT1-75" value="n" style="edgeLabel;html=1;align=center;verticalAlign=middle;resizable=0;points=[];" vertex="1" connectable="0" parent="2fZesRG1-jXSJ-_jZCT1-21">
          <mxGeometry x="0.0166" relative="1" as="geometry">
            <mxPoint x="16" as="offset" />
          </mxGeometry>
        </mxCell>
        <mxCell id="2fZesRG1-jXSJ-_jZCT1-22" value="" style="endArrow=none;html=1;rounded=0;entryX=0;entryY=0.5;entryDx=0;entryDy=0;exitX=1;exitY=0.5;exitDx=0;exitDy=0;" edge="1" parent="1" source="2fZesRG1-jXSJ-_jZCT1-7" target="2fZesRG1-jXSJ-_jZCT1-57">
          <mxGeometry width="50" height="50" relative="1" as="geometry">
            <mxPoint x="550" y="360" as="sourcePoint" />
            <mxPoint x="680" y="239.9999999999999" as="targetPoint" />
          </mxGeometry>
        </mxCell>
        <mxCell id="2fZesRG1-jXSJ-_jZCT1-23" value="Bewertung" style="whiteSpace=wrap;html=1;align=center;" vertex="1" parent="1">
          <mxGeometry x="500" y="410" width="100" height="40" as="geometry" />
        </mxCell>
        <mxCell id="2fZesRG1-jXSJ-_jZCT1-24" value="Account" style="whiteSpace=wrap;html=1;align=center;" vertex="1" parent="1">
          <mxGeometry x="460" y="720" width="100" height="40" as="geometry" />
        </mxCell>
        <mxCell id="2fZesRG1-jXSJ-_jZCT1-25" value="hat" style="shape=rhombus;perimeter=rhombusPerimeter;whiteSpace=wrap;html=1;align=center;" vertex="1" parent="1">
          <mxGeometry x="340" y="320" width="120" height="60" as="geometry" />
        </mxCell>
        <mxCell id="2fZesRG1-jXSJ-_jZCT1-26" value="" style="endArrow=none;html=1;rounded=0;entryX=0.5;entryY=1;entryDx=0;entryDy=0;exitX=0.5;exitY=0;exitDx=0;exitDy=0;" edge="1" parent="1" source="2fZesRG1-jXSJ-_jZCT1-23" target="2fZesRG1-jXSJ-_jZCT1-25">
          <mxGeometry width="50" height="50" relative="1" as="geometry">
            <mxPoint x="380" y="380" as="sourcePoint" />
            <mxPoint x="430" y="330" as="targetPoint" />
          </mxGeometry>
        </mxCell>
        <mxCell id="2fZesRG1-jXSJ-_jZCT1-70" value="n" style="edgeLabel;html=1;align=center;verticalAlign=middle;resizable=0;points=[];" vertex="1" connectable="0" parent="2fZesRG1-jXSJ-_jZCT1-26">
          <mxGeometry x="-0.7683" y="-1" relative="1" as="geometry">
            <mxPoint x="-3" y="-5" as="offset" />
          </mxGeometry>
        </mxCell>
        <mxCell id="2fZesRG1-jXSJ-_jZCT1-27" value="" style="endArrow=none;html=1;rounded=0;entryX=0.5;entryY=1;entryDx=0;entryDy=0;exitX=0.5;exitY=0;exitDx=0;exitDy=0;" edge="1" parent="1" source="2fZesRG1-jXSJ-_jZCT1-25" target="2fZesRG1-jXSJ-_jZCT1-1">
          <mxGeometry width="50" height="50" relative="1" as="geometry">
            <mxPoint x="320" y="370" as="sourcePoint" />
            <mxPoint x="370" y="320" as="targetPoint" />
          </mxGeometry>
        </mxCell>
        <mxCell id="2fZesRG1-jXSJ-_jZCT1-67" value="1" style="edgeLabel;html=1;align=center;verticalAlign=middle;resizable=0;points=[];" vertex="1" connectable="0" parent="2fZesRG1-jXSJ-_jZCT1-27">
          <mxGeometry x="0.3196" relative="1" as="geometry">
            <mxPoint x="-31" y="-7" as="offset" />
          </mxGeometry>
        </mxCell>
        <mxCell id="2fZesRG1-jXSJ-_jZCT1-30" value="erstellt" style="shape=rhombus;perimeter=rhombusPerimeter;whiteSpace=wrap;html=1;align=center;" vertex="1" parent="1">
          <mxGeometry x="510" y="490" width="120" height="60" as="geometry" />
        </mxCell>
        <mxCell id="2fZesRG1-jXSJ-_jZCT1-31" value="" style="endArrow=none;html=1;rounded=0;entryX=0.5;entryY=1;entryDx=0;entryDy=0;exitX=0.5;exitY=0;exitDx=0;exitDy=0;" edge="1" parent="1" source="2fZesRG1-jXSJ-_jZCT1-30" target="2fZesRG1-jXSJ-_jZCT1-23">
          <mxGeometry width="50" height="50" relative="1" as="geometry">
            <mxPoint x="570" y="460" as="sourcePoint" />
            <mxPoint x="505" y="430" as="targetPoint" />
          </mxGeometry>
        </mxCell>
        <mxCell id="2fZesRG1-jXSJ-_jZCT1-72" value="n" style="edgeLabel;html=1;align=center;verticalAlign=middle;resizable=0;points=[];" vertex="1" connectable="0" parent="2fZesRG1-jXSJ-_jZCT1-31">
          <mxGeometry x="0.5372" relative="1" as="geometry">
            <mxPoint as="offset" />
          </mxGeometry>
        </mxCell>
        <mxCell id="2fZesRG1-jXSJ-_jZCT1-32" value="" style="endArrow=none;html=1;rounded=0;entryX=0.458;entryY=1;entryDx=0;entryDy=0;entryPerimeter=0;exitX=0.5;exitY=0;exitDx=0;exitDy=0;" edge="1" parent="1" source="2fZesRG1-jXSJ-_jZCT1-24" target="2fZesRG1-jXSJ-_jZCT1-30">
          <mxGeometry width="50" height="50" relative="1" as="geometry">
            <mxPoint x="170" y="500" as="sourcePoint" />
            <mxPoint x="220" y="450" as="targetPoint" />
          </mxGeometry>
        </mxCell>
        <mxCell id="2fZesRG1-jXSJ-_jZCT1-71" value="1" style="edgeLabel;html=1;align=center;verticalAlign=middle;resizable=0;points=[];" vertex="1" connectable="0" parent="2fZesRG1-jXSJ-_jZCT1-32">
          <mxGeometry x="-0.8287" y="3" relative="1" as="geometry">
            <mxPoint as="offset" />
          </mxGeometry>
        </mxCell>
        <mxCell id="2fZesRG1-jXSJ-_jZCT1-33" value="E-Mail" style="ellipse;whiteSpace=wrap;html=1;align=center;fontStyle=4;" vertex="1" parent="1">
          <mxGeometry x="290" y="670" width="100" height="40" as="geometry" />
        </mxCell>
        <mxCell id="2fZesRG1-jXSJ-_jZCT1-34" value="Vorname" style="ellipse;whiteSpace=wrap;html=1;align=center;" vertex="1" parent="1">
          <mxGeometry x="290" y="720" width="100" height="40" as="geometry" />
        </mxCell>
        <mxCell id="2fZesRG1-jXSJ-_jZCT1-35" value="Sterne" style="ellipse;whiteSpace=wrap;html=1;align=center;" vertex="1" parent="1">
          <mxGeometry x="695" y="360" width="100" height="40" as="geometry" />
        </mxCell>
        <mxCell id="2fZesRG1-jXSJ-_jZCT1-36" value="" style="endArrow=none;html=1;rounded=0;entryX=0;entryY=0.5;entryDx=0;entryDy=0;exitX=1;exitY=0.5;exitDx=0;exitDy=0;" edge="1" parent="1" source="2fZesRG1-jXSJ-_jZCT1-23" target="2fZesRG1-jXSJ-_jZCT1-35">
          <mxGeometry width="50" height="50" relative="1" as="geometry">
            <mxPoint x="685" y="350" as="sourcePoint" />
            <mxPoint x="735" y="300" as="targetPoint" />
          </mxGeometry>
        </mxCell>
        <mxCell id="2fZesRG1-jXSJ-_jZCT1-37" value="" style="endArrow=none;html=1;rounded=0;exitX=1;exitY=0.5;exitDx=0;exitDy=0;entryX=0;entryY=0.5;entryDx=0;entryDy=0;" edge="1" parent="1" source="2fZesRG1-jXSJ-_jZCT1-33" target="2fZesRG1-jXSJ-_jZCT1-24">
          <mxGeometry width="50" height="50" relative="1" as="geometry">
            <mxPoint x="430" y="630" as="sourcePoint" />
            <mxPoint x="480" y="580" as="targetPoint" />
          </mxGeometry>
        </mxCell>
        <mxCell id="2fZesRG1-jXSJ-_jZCT1-38" value="" style="endArrow=none;html=1;rounded=0;entryX=0;entryY=0.5;entryDx=0;entryDy=0;exitX=1;exitY=0.5;exitDx=0;exitDy=0;" edge="1" parent="1" source="2fZesRG1-jXSJ-_jZCT1-34" target="2fZesRG1-jXSJ-_jZCT1-24">
          <mxGeometry width="50" height="50" relative="1" as="geometry">
            <mxPoint x="330" y="840" as="sourcePoint" />
            <mxPoint x="380" y="790" as="targetPoint" />
          </mxGeometry>
        </mxCell>
        <mxCell id="2fZesRG1-jXSJ-_jZCT1-39" value="Kommentar" style="ellipse;whiteSpace=wrap;html=1;align=center;" vertex="1" parent="1">
          <mxGeometry x="695" y="410" width="100" height="40" as="geometry" />
        </mxCell>
        <mxCell id="2fZesRG1-jXSJ-_jZCT1-40" value="timestamp" style="ellipse;whiteSpace=wrap;html=1;align=center;" vertex="1" parent="1">
          <mxGeometry x="695" y="460" width="100" height="40" as="geometry" />
        </mxCell>
        <mxCell id="2fZesRG1-jXSJ-_jZCT1-41" value="" style="endArrow=none;html=1;rounded=0;entryX=0;entryY=0.5;entryDx=0;entryDy=0;exitX=1;exitY=0.5;exitDx=0;exitDy=0;" edge="1" parent="1" source="2fZesRG1-jXSJ-_jZCT1-23" target="2fZesRG1-jXSJ-_jZCT1-39">
          <mxGeometry width="50" height="50" relative="1" as="geometry">
            <mxPoint x="365" y="470" as="sourcePoint" />
            <mxPoint x="415" y="420" as="targetPoint" />
          </mxGeometry>
        </mxCell>
        <mxCell id="2fZesRG1-jXSJ-_jZCT1-42" value="" style="endArrow=none;html=1;rounded=0;entryX=0;entryY=0.5;entryDx=0;entryDy=0;exitX=1;exitY=0.5;exitDx=0;exitDy=0;" edge="1" parent="1" source="2fZesRG1-jXSJ-_jZCT1-23" target="2fZesRG1-jXSJ-_jZCT1-40">
          <mxGeometry width="50" height="50" relative="1" as="geometry">
            <mxPoint x="635" y="410" as="sourcePoint" />
            <mxPoint x="735" y="600" as="targetPoint" />
          </mxGeometry>
        </mxCell>
        <mxCell id="2fZesRG1-jXSJ-_jZCT1-43" value="Vorschlag" style="whiteSpace=wrap;html=1;align=center;" vertex="1" parent="1">
          <mxGeometry x="200" y="560" width="100" height="40" as="geometry" />
        </mxCell>
        <mxCell id="2fZesRG1-jXSJ-_jZCT1-44" value="vorschlagen und bewerten" style="shape=rhombus;perimeter=rhombusPerimeter;whiteSpace=wrap;html=1;align=center;" vertex="1" parent="1">
          <mxGeometry x="370" y="550" width="120" height="60" as="geometry" />
        </mxCell>
        <mxCell id="2fZesRG1-jXSJ-_jZCT1-45" value="" style="endArrow=none;html=1;rounded=0;entryX=0;entryY=0.5;entryDx=0;entryDy=0;exitX=1;exitY=0.5;exitDx=0;exitDy=0;" edge="1" parent="1" source="2fZesRG1-jXSJ-_jZCT1-43" target="2fZesRG1-jXSJ-_jZCT1-44">
          <mxGeometry width="50" height="50" relative="1" as="geometry">
            <mxPoint x="340" y="500" as="sourcePoint" />
            <mxPoint x="390" y="450" as="targetPoint" />
          </mxGeometry>
        </mxCell>
        <mxCell id="2fZesRG1-jXSJ-_jZCT1-74" value="n" style="edgeLabel;html=1;align=center;verticalAlign=middle;resizable=0;points=[];" vertex="1" connectable="0" parent="2fZesRG1-jXSJ-_jZCT1-45">
          <mxGeometry x="-0.7507" y="2" relative="1" as="geometry">
            <mxPoint as="offset" />
          </mxGeometry>
        </mxCell>
        <mxCell id="2fZesRG1-jXSJ-_jZCT1-46" value="" style="endArrow=none;html=1;rounded=0;entryX=0.5;entryY=0;entryDx=0;entryDy=0;exitX=0.5;exitY=1;exitDx=0;exitDy=0;" edge="1" parent="1" source="2fZesRG1-jXSJ-_jZCT1-44" target="2fZesRG1-jXSJ-_jZCT1-24">
          <mxGeometry width="50" height="50" relative="1" as="geometry">
            <mxPoint x="420" y="620" as="sourcePoint" />
            <mxPoint x="510" y="620" as="targetPoint" />
          </mxGeometry>
        </mxCell>
        <mxCell id="2fZesRG1-jXSJ-_jZCT1-73" value="n" style="edgeLabel;html=1;align=center;verticalAlign=middle;resizable=0;points=[];" vertex="1" connectable="0" parent="2fZesRG1-jXSJ-_jZCT1-46">
          <mxGeometry x="0.727" y="-2" relative="1" as="geometry">
            <mxPoint as="offset" />
          </mxGeometry>
        </mxCell>
        <mxCell id="2fZesRG1-jXSJ-_jZCT1-47" value="" style="endArrow=none;html=1;rounded=0;entryX=0;entryY=0.5;entryDx=0;entryDy=0;exitX=1;exitY=0.5;exitDx=0;exitDy=0;" edge="1" parent="1" source="2fZesRG1-jXSJ-_jZCT1-48" target="2fZesRG1-jXSJ-_jZCT1-43">
          <mxGeometry width="50" height="50" relative="1" as="geometry">
            <mxPoint x="180" y="450" as="sourcePoint" />
            <mxPoint x="170" y="480" as="targetPoint" />
          </mxGeometry>
        </mxCell>
        <mxCell id="2fZesRG1-jXSJ-_jZCT1-48" value="Likes" style="ellipse;whiteSpace=wrap;html=1;align=center;" vertex="1" parent="1">
          <mxGeometry x="50" y="500" width="100" height="40" as="geometry" />
        </mxCell>
        <mxCell id="2fZesRG1-jXSJ-_jZCT1-49" value="Gericht" style="ellipse;whiteSpace=wrap;html=1;align=center;" vertex="1" parent="1">
          <mxGeometry x="50" y="550" width="100" height="40" as="geometry" />
        </mxCell>
        <mxCell id="2fZesRG1-jXSJ-_jZCT1-50" value="" style="endArrow=none;html=1;rounded=0;entryX=0;entryY=0.5;entryDx=0;entryDy=0;exitX=1;exitY=0.5;exitDx=0;exitDy=0;" edge="1" parent="1" source="2fZesRG1-jXSJ-_jZCT1-49" target="2fZesRG1-jXSJ-_jZCT1-43">
          <mxGeometry width="50" height="50" relative="1" as="geometry">
            <mxPoint x="170" y="460" as="sourcePoint" />
            <mxPoint x="250" y="490" as="targetPoint" />
          </mxGeometry>
        </mxCell>
        <mxCell id="2fZesRG1-jXSJ-_jZCT1-51" value="Nachname" style="ellipse;whiteSpace=wrap;html=1;align=center;" vertex="1" parent="1">
          <mxGeometry x="290" y="770" width="100" height="40" as="geometry" />
        </mxCell>
        <mxCell id="2fZesRG1-jXSJ-_jZCT1-52" value="Passwort" style="ellipse;whiteSpace=wrap;html=1;align=center;" vertex="1" parent="1">
          <mxGeometry x="290" y="820" width="100" height="40" as="geometry" />
        </mxCell>
        <mxCell id="2fZesRG1-jXSJ-_jZCT1-53" value="" style="endArrow=none;html=1;rounded=0;entryX=0;entryY=0.5;entryDx=0;entryDy=0;exitX=1;exitY=0.5;exitDx=0;exitDy=0;" edge="1" parent="1" source="2fZesRG1-jXSJ-_jZCT1-51" target="2fZesRG1-jXSJ-_jZCT1-24">
          <mxGeometry width="50" height="50" relative="1" as="geometry">
            <mxPoint x="490" y="880" as="sourcePoint" />
            <mxPoint x="540" y="830" as="targetPoint" />
          </mxGeometry>
        </mxCell>
        <mxCell id="2fZesRG1-jXSJ-_jZCT1-54" value="" style="endArrow=none;html=1;rounded=0;entryX=0;entryY=0.5;entryDx=0;entryDy=0;exitX=1;exitY=0.5;exitDx=0;exitDy=0;" edge="1" parent="1" source="2fZesRG1-jXSJ-_jZCT1-52" target="2fZesRG1-jXSJ-_jZCT1-24">
          <mxGeometry width="50" height="50" relative="1" as="geometry">
            <mxPoint x="440" y="830" as="sourcePoint" />
            <mxPoint x="490" y="780" as="targetPoint" />
          </mxGeometry>
        </mxCell>
        <mxCell id="2fZesRG1-jXSJ-_jZCT1-57" value="&lt;span style=&quot;border-bottom: 1px dotted;&quot;&gt;Datum&lt;/span&gt;" style="ellipse;whiteSpace=wrap;html=1;align=center;" vertex="1" parent="1">
          <mxGeometry x="680" y="220" width="100" height="40" as="geometry" />
        </mxCell>
        <mxCell id="2fZesRG1-jXSJ-_jZCT1-58" value="&lt;div&gt;ID&lt;/div&gt;" style="ellipse;whiteSpace=wrap;html=1;align=center;fontStyle=4;" vertex="1" parent="1">
          <mxGeometry x="695" y="310" width="100" height="40" as="geometry" />
        </mxCell>
        <mxCell id="2fZesRG1-jXSJ-_jZCT1-59" value="" style="endArrow=none;html=1;rounded=0;entryX=0;entryY=0.5;entryDx=0;entryDy=0;exitX=1;exitY=0.5;exitDx=0;exitDy=0;" edge="1" parent="1" source="2fZesRG1-jXSJ-_jZCT1-23" target="2fZesRG1-jXSJ-_jZCT1-58">
          <mxGeometry width="50" height="50" relative="1" as="geometry">
            <mxPoint x="560" y="370" as="sourcePoint" />
            <mxPoint x="610" y="320" as="targetPoint" />
          </mxGeometry>
        </mxCell>
        <mxCell id="2fZesRG1-jXSJ-_jZCT1-60" value="&lt;div&gt;ID&lt;/div&gt;" style="ellipse;whiteSpace=wrap;html=1;align=center;fontStyle=4;" vertex="1" parent="1">
          <mxGeometry x="50" y="450" width="100" height="40" as="geometry" />
        </mxCell>
        <mxCell id="2fZesRG1-jXSJ-_jZCT1-61" value="" style="endArrow=none;html=1;rounded=0;exitX=1;exitY=0.5;exitDx=0;exitDy=0;entryX=0;entryY=0.5;entryDx=0;entryDy=0;" edge="1" parent="1" source="2fZesRG1-jXSJ-_jZCT1-60" target="2fZesRG1-jXSJ-_jZCT1-43">
          <mxGeometry width="50" height="50" relative="1" as="geometry">
            <mxPoint x="180" y="450" as="sourcePoint" />
            <mxPoint x="240" y="480" as="targetPoint" />
          </mxGeometry>
        </mxCell>
        <mxCell id="2fZesRG1-jXSJ-_jZCT1-62" value="Beschreibung" style="ellipse;whiteSpace=wrap;html=1;align=center;" vertex="1" parent="1">
          <mxGeometry x="50" y="600" width="100" height="40" as="geometry" />
        </mxCell>
        <mxCell id="2fZesRG1-jXSJ-_jZCT1-63" value="" style="endArrow=none;html=1;rounded=0;entryX=0;entryY=0.5;entryDx=0;entryDy=0;exitX=1;exitY=0.5;exitDx=0;exitDy=0;" edge="1" parent="1" source="2fZesRG1-jXSJ-_jZCT1-62" target="2fZesRG1-jXSJ-_jZCT1-43">
          <mxGeometry width="50" height="50" relative="1" as="geometry">
            <mxPoint x="160" y="580" as="sourcePoint" />
            <mxPoint x="240" y="500" as="targetPoint" />
          </mxGeometry>
        </mxCell>
        <mxCell id="2fZesRG1-jXSJ-_jZCT1-64" value="ist enthalten auf" style="shape=rhombus;double=1;perimeter=rhombusPerimeter;whiteSpace=wrap;html=1;align=center;" vertex="1" parent="1">
          <mxGeometry x="360" y="210" width="120" height="60" as="geometry" />
        </mxCell>
        <mxCell id="2fZesRG1-jXSJ-_jZCT1-65" value="timestamp" style="ellipse;whiteSpace=wrap;html=1;align=center;" vertex="1" parent="1">
          <mxGeometry x="50" y="650" width="100" height="40" as="geometry" />
        </mxCell>
        <mxCell id="2fZesRG1-jXSJ-_jZCT1-66" value="" style="endArrow=none;html=1;rounded=0;entryX=0;entryY=0.5;entryDx=0;entryDy=0;exitX=1;exitY=0.5;exitDx=0;exitDy=0;" edge="1" parent="1" source="2fZesRG1-jXSJ-_jZCT1-65" target="2fZesRG1-jXSJ-_jZCT1-43">
          <mxGeometry width="50" height="50" relative="1" as="geometry">
            <mxPoint x="190" y="710" as="sourcePoint" />
            <mxPoint x="240" y="660" as="targetPoint" />
          </mxGeometry>
        </mxCell>
      </root>
    </mxGraphModel>
  </diagram>
</mxfile>
